<svg id="Effect" enable-background="new 0 0 36 36" height="512" viewBox="0 0 36 36" width="512" xmlns="http://www.w3.org/2000/svg"><g><path d="m8.377 4.167c6.917 0 11.667-3.583 15-3.583s10.333 1.916 10.333 17.249-9.417 17.583-13.083 17.583c-17.167.001-24.5-31.249-12.25-31.249z" fill="#efefef"/></g><g><path d="m22.97 7.75c-.34-.6-.98-1-1.72-1h-11.5c-1.1 0-2 .9-2 2v15.5c0 .276.057.539.159.778l-.159.222c.34.6.98 1 1.72 1h11.5c1.1 0 2-.9 2-2v-15.5c0-.276-.057-.539-.159-.778z" fill="#2fdf84"/></g><g><path d="m28.25 27.25v-14.5c0-1.105-.895-2-2-2h-11.5c-1.105 0-2 .895-2 2v14.5c0 1.105.895 2 2 2h11.5c1.105 0 2-.895 2-2z" fill="#f3f3f1"/></g><g><path d="m10 25.25.159-.222c-.102-.239-.159-.502-.159-.778v-15.5c0-1.1.9-2 2-2h-2.25c-1.1 0-2 .9-2 2v15.5c0 .276.057.539.159.778l-.159.222c.34.6.98 1 1.72 1h2.25c-.74 0-1.38-.4-1.72-1z" fill="#00b871"/></g><g><path d="m15 27.25v-14.5c0-1.105.895-2 2-2h-2.25c-1.105 0-2 .895-2 2v14.5c0 1.105.895 2 2 2h2.25c-1.105 0-2-.895-2-2z" fill="#d5dbe1"/></g><g><path d="m16.75 21.5h7.5v1.5h-7.5z"/></g><g><path d="m16.75 25.5h7.5v1.5h-7.5z"/></g><g><path d="m16.75 18h7.5v1.5h-7.5z"/></g><g><path d="m16.75 14h7.5v1.5h-7.5z"/></g><g><path d="m10.5 27h-.75c-1.517 0-2.75-1.233-2.75-2.75v-15.5c0-1.517 1.233-2.75 2.75-2.75h11.5c.98 0 1.89.528 2.373 1.38l.37.652-1.305.74-.37-.652c-.22-.389-.62-.62-1.068-.62h-11.5c-.689 0-1.25.561-1.25 1.25v15.5c0 .689.561 1.25 1.25 1.25h.75z"/></g><g><path d="m26.25 30h-11.5c-1.517 0-2.75-1.233-2.75-2.75v-14.5c0-1.517 1.233-2.75 2.75-2.75h11.5c1.517 0 2.75 1.233 2.75 2.75v14.5c0 1.517-1.233 2.75-2.75 2.75zm-11.5-18.5c-.689 0-1.25.561-1.25 1.25v14.5c0 .689.561 1.25 1.25 1.25h11.5c.689 0 1.25-.561 1.25-1.25v-14.5c0-.689-.561-1.25-1.25-1.25z"/></g><g><path d="m32 28.25c-.827 0-1.5-.673-1.5-1.5s.673-1.5 1.5-1.5 1.5.673 1.5 1.5-.673 1.5-1.5 1.5zm0-2c-.276 0-.5.225-.5.5s.224.5.5.5.5-.225.5-.5-.224-.5-.5-.5z" fill="#a4afc1"/></g><g><path d="m7 3.467h2v1h-2z" fill="#a4afc1" transform="matrix(.707 -.707 .707 .707 -.462 6.819)"/></g><g><path d="m2.934 7.533h2v1h-2z" fill="#a4afc1" transform="matrix(.707 -.707 .707 .707 -4.528 5.135)"/></g><g><path d="m3.611 2.967h1v2h-1z" fill="#a4afc1" transform="matrix(.707 -.707 .707 .707 -1.601 4.069)"/></g></svg>